<svg xmlns="http://www.w3.org/2000/svg" viewBox="0 0 62 50"><path d="M57.6 15c-.2-2-.3-5.2 1.5-6.3h.2c1.4-.6 2.4-1.2 1.6-2L39.8 0 5.4 5s-4 .5-3.5 6.7c0 3.5 1.2 5.2 2 6l-2.7 1c-.8.8.2 1.4 1.6 2 1.7 1 1.7 4.5 1.4 6.4-6.3 2-4 2.5-4 2.5l1.4.4c-1 .8-2 2.5-1.8 5.8.4 6.3 3.6 6.7 3.6 6.7L26 50l33.7-8.4s2.3-.6-4-2.5c-.2-1.8-.3-5.2 1.5-6.3 1.5-.6 2.5-1.2 1.7-2l-1.6-.6c1-.5 2.5-2 2.7-6.2.3-2.8-.4-4.5-1.3-5.5l3-.7s2-.6-4-2.5zm-28.3 0l5.7-1.2 19.2-4 3-.7c-1 2-1 4.2-.8 5.7v1l-3 .7L29 22.7l.4-7.7zM5 21.2l2.8.5 18.4 4 1.7.3 4.7 1 .2 7.7-25-6.5-2.4-.6v-1C6 25.3 6 23 5 21.2zm-1.2-9.7c0-1.7.3-3 1-3.5.2-.4.7-.5 1-.5H6l15 5L28 15l-.2 7.6-20.7-6-1-.2H6s-2-.3-2-5zm22.3 35L4.4 40.4c-.2 0-2.2-.2-2.3-5 0-1.6.2-2.8.8-3.4.4-.5.8-.6 1-.6h.4l22 7.6v7.7zm28.5-7.8v1l-27.3 7 .3-7.7 5.8-1.2 1 .2 3-1 15-3.3 3-.6c-1 2-1 4.2-.8 5.7zM56 28.3h-.2l-2 .7L34 34.6V27l6.3-2.2L56 19.5s.8-.2 1.3.4c.6.5 1 1.7 1 3.4-.2 4.7-2.3 5-2.3 5z" fill="#fff"/></svg>