<svg xmlns="http://www.w3.org/2000/svg" viewBox="0 0 25 20"><path d="M21.4.6H3.2c-1.6 0-3 1.4-3 3v13c0 1.8 1.4 3.2 3 3.2h18.2c1.6 0 3-1.4 3-3v-13c0-1.8-1.4-3.2-3-3.2z" fill="none" stroke="#818892" stroke-width=".9" stroke-linejoin="round"/><path d="M22 3.2c-.4-.3-1 .7-9.6 8.8C3.2 3.4 3 2.8 2.7 3.2c-.3.4.3.8 6.7 7-6 5.7-7 6.3-6.7 6.7.4.4 1-.7 7-6.5 1 1 2.7 2.3 2.7 2.3l2.5-2.4c6.2 6.2 6.5 7 7 6.5.3-.5-.4-.8-6.7-7 6-6 7-6.5 6.7-6.8z" fill="#818892" stroke="#818892" stroke-width=".3" stroke-linejoin="round"/></svg>