<svg xmlns="http://www.w3.org/2000/svg" viewBox="0 0 25 25"><g fill="#818892" stroke-width="0" stroke-linecap="round" stroke-linejoin="round"><path d="M20.6 7c1.2 0 2-1 2-2 0-1.3-.8-2.2-2-2.2s-2 1-2 2c0 1.3.8 2.3 2 2.3zm0-3.4c.7 0 1.3.6 1.3 1.3 0 .7-.7 1.2-1.4 1.2s-1.3-.5-1.3-1.3.6-1.4 1.3-1.4z"/><path d="M24.3 8c1.4-1.8 1.2-4.8-.4-6.4C22.2 0 19.7-.2 18 1 16 .2 14.3-.3 12.4-.3h-.3C5.6 0 .2 5.5.2 12.2c0 3.2 1.2 6 3 8.3.2 0 .2.2.3.2 2.2 2.4 5.3 4 8.7 4h.7c6.5-.2 11.8-5.7 12-12.4 0-1.4-.4-2.8-.8-4V8zm-3 11.7c-1-.7-2.2-1.3-3.4-1.8.5-1.7.8-3.5 1-5.3h1l.3.2h.5l.3-.3h3c0 2.7-1 5-2.7 7zM1 12.7h5.2c0 1.8.4 3.6 1 5.2-1.2.4-2.3 1-3.4 1.7-1.6-2-2.6-4.3-2.7-7zm3-8.2c1 .7 2.2 1.3 3.3 1.7-.7 1.8-1 3.7-1 5.6H1C1.3 9 2.4 6.5 4 4.5zM17 8l2.5 3.8H13V7c1 0 2 0 3-.4.3.5.5 1 1 1.5zm-5-1V12H7c0-2 .5-3.7 1.2-5.3 1.2.3 2.6.5 4 .6zM8.6 5.7c1-1.8 2-3.4 3.6-4.8v5.4c-1 0-2.3-.2-3.5-.6zm-.8-.2L4.7 4C6.2 2 8.4 1 11 .6 9.6 2 8.5 3.7 7.7 5.4zM7 12.7h5V17c-1.3 0-2.7.3-4 .7-.6-1.6-1-3.3-1-5zm5 5.2v5.6c-1.5-1.4-2.8-3.2-3.7-5 1.3-.5 2.5-.7 3.8-.7zm1 5.6V18c1.2 0 2.5 0 3.7.5-.8 2-2 3.7-3.7 5zm0-6.6v-4.3h5c0 1.7-.3 3.4-1 5-1.3-.4-2.6-.7-4-.7zM23.3 2.2c1.3 1.3 1.5 3.8.3 5.3l-3 4.3-3-4.3C17 7 16.7 6 16.7 5c0-1 .3-2 1-2.8.8-.8 1.8-1.2 2.8-1.2 1 0 2 .4 2.7 1.2zm-6-.5c-1 1-1.5 2.6-1.3 4-1 .3-2 .5-3 .5V.6c1.5 0 3 .4 4.2 1zm-13 18.6c1-.7 2-1.2 3.2-1.6 1 2 2 3.6 3.6 5-2.6-.3-5-1.5-6.7-3.4zm9.8 3.5c1.5-1.5 2.7-3.2 3.5-5l3.2 1.6c-1.7 1.8-4 3-6.6 3.4zm10-12h-2.3l2-2.7c0 1 .2 2 .3 2.8z"/></g></svg>