<svg xmlns="http://www.w3.org/2000/svg" viewBox="0 0 50 46"><path d="M46 36.7l-8-3.5c-.2 0-.4-.4-.6-.7h5.4s2.3.2 4-.5c.8-.3 1.3-.8 1.5-1.6.2-.7 0-1.4-.3-2-1.5-2.2-5.2-8-5.3-13.8 0 0-.3-10-10-10-1.5 0-2.8.2-4 .7-.3-.7-.7-1.4-1.3-2-1.6-2-4.4-3-8.2-3-3.7 0-6.4 1-8 3C9 5.4 9 8 9 8.5V13c-.4.6-.7 1.4-.7 2v3.4c0 1 .5 2 1.3 2.6.7 3 2.3 5.3 3 6v2.7c0 .8-.6 1.6-1.3 2l-7.4 4C1.8 37 .3 39.5.3 42.2v3.5H50v-3c0-2.6-1.5-5-3.7-6zM36.7 44H2v-1.8c0-2 1-4 3-5l7.3-4c1.3-.8 2-2 2-3.5v-3.3l-.2-.2s-2-2.5-2.7-6V20l-.3-.2c-.5-.3-.8-.8-.8-1.3v-3.3c0-.5.2-1 .5-1.3l.3-.3V8.5s-.3-2.3 1.3-4.2C13.7 2.7 16 2 19.3 2c3.2 0 5.5.7 7 2.3.6.7 1 1.6 1 2.3V7.2h.2v6.5l.2.3c.4.3.6.7.6 1.2v3.3c0 .7-.4 1.3-1 1.5l-.5.2-.2.4c-.5 1.7-1.3 3.3-2.3 4.7l-.7 1-.2.2v3.9l.2.6v.2l.3.5.3.6.2.3 1 .7 8 4c2 1 3 3 3 5v1.8zM48 44h-9.8v-1.6c0-3-1.5-5.4-4-6.7l-5.8-3c.2-.2.2-.5 0-1 0-.5-.7-1-1.3-1h-1.7l-.2-.4V27l.6-.8c1-1.5 2-3 2.5-4.8 1.2-.5 2-1.7 2-3V15c0-.7-.3-1.5-.8-2V8.5 6.8c1-.4 2.2-.6 3.5-.6 8 0 8.4 8 8.4 8.4.2 6.3 4 12.4 5.6 14.6.2.2.2.5.2.7 0 0-.2.3-.5.4-1.4.6-3.3.5-3.4.5h-5.7c-.5 0-1 0-1.3.6-.3.4-.3 1 0 1.4.2.6.7 1.3 1.4 1.6l8 3.6c1.8.8 2.8 2.5 2.8 4.4V44z" fill="#fff" stroke="#fff" stroke-width=".5" stroke-linejoin="round"/></svg>