<svg xmlns="http://www.w3.org/2000/svg" viewBox="0 0 50 46"><path d="M31.7.3c-.4 0-.7.3-1 .8L16.5 41.6 9.7 25c-.2-.4-.5-.7-.8-.7H1.2c-.5 0-1 .6-1 1.3 0 .8.4 1.4 1 1.4h7l7.3 18c.4 1 1.4 1 1.7 0l15-42h16.5c.5 0 1-.6 1-1.3 0-.8-.5-1.4-1-1.4h-17zm0 16c-.6 0-1 .6-1 1.4 0 .3 0 .7.2 1l7.8 11-7.8 11c-.4.6-.4 1.4 0 2 .3.5 1 .5 1.3 0l8-11 7.8 11c.4.5 1 .5 1.4 0 .4-.5.4-1.4 0-2l-7.8-11 7.8-11c.4-.6.4-1.5 0-2-.2-.2-.4-.4-.7-.4-.3 0-.5.2-.7.4l-8 11-7.7-11c-.2-.2-.4-.4-.7-.4z" fill="#3f95ea" stroke="#3f95ea" stroke-width=".6" stroke-linejoin="round"/></svg>