<svg xmlns="http://www.w3.org/2000/svg" viewBox="0 0 24 20"><path d="M22.9 19.9l-3.2.08s-.7.2-1.6-.7c-1.2-1.2-2.33-4.34-3.2-3.93-.9.4-.87 3.22-.87 3.22s0 .6-.2.92c-.22.34-.66.4-.66.4h-1.43s-3.16.3-5.95-3.95C2.74 11.32.06 2.15.06 2.15s-.16-.6 0-.9C.28.94.8.92.8.92L4.2.9s.32.08.55.33c.2.2.3.6.3.6s.55 2.05 1.28 3.9c1.43 3.6 2.1 4.4 2.6 4.02.7-.56.48-5.1.48-5.1s.02-1.66-.35-2.4c-.3-.56-.83-.73-1.06-.77-.2-.04.12-.7.53-1 .62-.44 1.7-.47 3-.45 1 0 1.3.12 1.68.24 1.18.42.78 2.04.78 5.9 0 1.24-.14 2.98.47 3.55.26.24.9.03 2.5-3.96.77-1.9 1.34-4.1 1.34-4.1s.14-.42.33-.58c.2-.17.47-.13.47-.13L22.7.9s1.1-.2 1.26.53c.2.76-.4 2.5-1.87 5.38-2.43 4.72-2.7 4.28-.7 7 1.93 2.6 2.32 3.88 2.4 4.04.77 1.92-.9 2.07-.9 2.07z" fill="#3f95ea"/></svg>