<svg xmlns="http://www.w3.org/2000/svg" viewBox="0 0 50 50"><path d="M31 31c-.3 0-.5.4-.5.8 0 .3.2.6.4.8 0 .2.4.4.7.4.4 0 .7-.2 1-.4l.2-1-.4-.7c-.3-.4-.6-.5-1-.5-.2 0-.6 0-.8.3zm7.3 7.4c-.4.4-.4 1.2 0 1.7.3.3.6.5 1 .5l.8-.4c.6-.3.6-1 0-1.6-.4-.5-1-.5-1.6 0zm-3.7-3.8c-.5.5-.5 1.3 0 1.8.3.2.6.3 1 .3.2 0 .5 0 .8-.3.5-.5.5-1.3 0-1.8-.5-.4-1.3-.4-1.8 0zm8.4 7.2c-.4 0-.7 0-1 .3l-.3 1c0 .3.2.6.4.8.3.3.6.4 1 .4.3 0 .6 0 .8-.4.3-.2.4-.5.4-.8 0-.3-.2-.7-.4-1L43 42z" fill="#fff" stroke="#fff" stroke-width=".5" stroke-linecap="round" stroke-linejoin="round"/><path d="M49.4 37.8L35.7 24c-1.2-1-1.8-2.8-1.5-4.5.7-5.3-1-10.5-5-14.3-1.8-2-4-3.3-6.7-4.2-2.5-.7-5.2-1-7.7-.6C14 .4 13.3 1 13 2c-.2.6 0 1.5.5 2l5 5c.8.8 1.2 2 1.2 3 0 1.4-.5 2.6-1.3 3.4l-3 3c-.8.8-2 1.3-3.2 1.3-1.2 0-2.4-.5-3.3-1.3l-5-4.8c-.5-.6-1.3-.8-2.2-.5C1 13.4.5 14 .4 15 0 17.4.4 20 1 22.5c1 2.6 2.3 5 4.3 7 3.2 3 7.4 4.8 12 4.8h2.2c1.7-.3 3.4.3 4.6 1.5l13.7 13.6c.2.3.5.4 1 .4l.7-.4c.5-.5.5-1.2 0-1.7L26 34c-2-1.7-4.4-2.5-6.8-2.2-4.5.6-9-1-12.2-4.2-3-3-4.7-7.5-4.2-12l4.4 4.5c1.3 1.4 3 2.2 5 2.2 1.8 0 3.6-.8 5-2l3-3c1.2-1.4 2-3 2-5s-.8-3.6-2-5l-4.5-4.4c4.4-.5 8.8 1 12 4.2 3 3.2 4.7 7.7 4 12.2-.3 2.5.6 5 2.3 6.7l13.7 13.5c.4.5 1.2.5 1.7 0s.5-1.2 0-1.7z" fill="#fff" stroke="#fff" stroke-width=".5" stroke-linecap="round" stroke-linejoin="round"/></svg>