<svg xmlns="http://www.w3.org/2000/svg" viewBox="0 0 24 20"><path d="M14.73 13.88v2.36c0 .5-.17.74-.52.74-.2 0-.4-.08-.6-.24v-3.36c.2-.16.4-.25.6-.25.36 0 .53.25.53.75zm4.56 0v.53h-1.22v-.5c0-.5.2-.77.6-.77.4 0 .6.26.6.76zM6.25 11.47H7.7V10.4H3.5v1.06h1.4v6.35h1.36v-6.34zm3.9 6.35h1.2v-5.5h-1.2v4.22c-.28.3-.54.46-.78.46-.16 0-.26-.07-.3-.23V12.3h-1.2v4.36c0 .36.04.64.1.82.12.27.38.4.8.4.42 0 .88-.22 1.37-.67v.6zm5.77-1.64v-2.2c0-.54-.04-.9-.12-1.1-.14-.42-.46-.63-.95-.63-.45 0-.87.2-1.25.6V10.4h-1.2v7.4h1.2v-.53c.4.4.82.62 1.25.62.5 0 .8-.22.96-.63.1-.2.13-.57.13-1.1zm4.56-.1v-.16h-1.24c0 .38 0 .6-.02.68-.07.27-.25.4-.54.4-.42 0-.62-.25-.62-.77v-.96h2.4V14.1c0-.6-.1-1.03-.35-1.3-.35-.38-.83-.57-1.43-.57-.62 0-1.1.2-1.45.57-.25.28-.37.7-.37 1.3V16c0 .6.13 1.02.4 1.3.34.38.82.57 1.44.57.65 0 1.14-.2 1.46-.6.16-.2.26-.4.28-.6.02-.07.03-.3.03-.65zm-8.2-10.2V3.52c0-.52-.2-.77-.6-.77-.38 0-.57.25-.57.77v2.34c0 .52.2.78.58.78.4 0 .6-.26.6-.78zm9.7 8.38c0 1.3.1 2.66-.36 3.9-.5 1.1-1.4 1.5-2.16 1.62-1.3.22-4.15.24-7.5.24-3.32 0-5.82-.08-7.47-.24-1.14-.12-1.66-.77-2.15-1.62C2.12 17.3 2 16 2 14.24c0-1.74.12-3.04.35-3.9.4-1.08 1.26-1.57 2.17-1.64 1.65-.14 4.14-.22 7.47-.22s5.82.08 7.48.22c1.2.18 1.75.84 2.16 1.63.23.84.35 2.6.35 3.9zM8.52 0H9.9L8.27 4.45v3.03H6.92V4.45C6.8 3.9 6.52 3.1 6.1 2.1L5.22 0h1.43l.96 2.93zm5 3.72v1.95c0 .6-.14 1.04-.4 1.32-.32.36-.8.55-1.42.55-.6 0-1.06-.2-1.4-.56-.26-.3-.38-.74-.38-1.33V3.72c0-.6.12-1.03.37-1.3.34-.4.8-.58 1.4-.58.63 0 1.1.2 1.44.57.25.3.38.72.38 1.32zm4.5-1.8v5.56h-1.22v-.62c-.47.46-.93.7-1.38.7-.4 0-.68-.14-.8-.42-.07-.18-.1-.46-.1-.83V1.9h1.22V6c0 .25 0 .38.02.4.02.16.12.24.28.24.24 0 .5-.16.77-.48V1.9z" fill="#3f95ea"/></svg>